<?xml version="1.0" encoding="utf-8"?>
<!-- Generator: Adobe Illustrator 16.0.0, SVG Export Plug-In . SVG Version: 6.00 Build 0)  -->
<!DOCTYPE svg PUBLIC "-//W3C//DTD SVG 1.1//EN" "http://www.w3.org/Graphics/SVG/1.1/DTD/svg11.dtd">
<svg version="1.1" xmlns="http://www.w3.org/2000/svg" xmlns:xlink="http://www.w3.org/1999/xlink" x="0px" y="0px"
	 width="357.167px" height="249.5px" viewBox="-2.222 -3.372 357.167 249.5" enable-background="new -2.222 -3.372 357.167 249.5"
	 xml:space="preserve">
<g id="Layer_3" display="none">
</g>
<g id="Layer_2_1_">
	<g>
		<path fill="#666666" stroke="#000000" stroke-miterlimit="10" d="M269.498,35.178c-2.865,0-5.824,2.286-8.872,6.854
			c-3.051,4.571-5.837,11.822-8.362,21.756c-2.526,9.937-3.435,17.221-2.725,21.856c0.707,4.639,2.496,6.955,5.36,6.955
			c2.994,0,6.023-2.316,9.093-6.955c3.063-4.636,5.861-11.919,8.389-21.856c2.524-9.934,3.422-17.185,2.698-21.756
			C274.352,37.464,272.492,35.178,269.498,35.178z"/>
		<path fill="#EAEAEA" stroke="#000000" stroke-miterlimit="10" d="M344.677,7.472c-3.789-4.873-9.615-7.723-15.788-7.723h-19.531
			c-6.21,0-11.883,2.86-15.591,7.471c-5.99-3.729-13.042-5.714-20.794-5.714c-10.854,0-21.05,3.695-30.43,10.979
			c-0.482-0.857-1.023-1.688-1.638-2.476c-3.788-4.873-9.614-7.723-15.787-7.723h-76.173c-8.765,0-16.444,5.706-19.057,13.981
			c-1.864-1.939-3.996-3.738-6.391-5.362c-9.143-6.194-21.276-9.206-37.1-9.206c-14.532,0-27.201,2.648-37.653,7.873
			c-16.289,8.144-22.097,19.244-24.099,27.121c-0.714,2.807-1.063,5.576-1.059,8.273c-4.938,2.566-8.722,7.15-10.164,12.821
			L9.95,71.461c-1.425,5.601-0.353,11.524,2.9,16.256c-1.426,5.912-0.085,12.158,3.654,16.966c2.054,2.642,4.707,4.689,7.688,6.009
			l-0.056,0.222c-1.521,5.982-0.195,12.332,3.594,17.205c3.789,4.871,9.616,7.723,15.789,7.723h9.818l-1.492,5.867
			c-0.192,0.756-0.339,1.518-0.441,2.279c-0.272,0.717-0.508,1.457-0.7,2.215l-6.168,24.264c-1.74,6.846-1.113,13.553,1.742,19.27
			l-5.121,20.145c-2.12,8.348-0.672,16.455,4.08,22.834c4.948,6.637,12.557,10.293,21.423,10.293h69.336
			c2.565,0,5.034-0.504,7.316-1.402c1.997,0.658,4.104,1.012,6.258,1.012h87.695c9.147,0,17.129-6.207,19.383-15.072l3.478-13.672
			c1.459-5.732,0.3-11.807-3.138-16.594c0.852-1.51,1.516-3.148,1.958-4.891l3.477-13.672c1.37-5.393,0.428-11.084-2.547-15.723
			c4.729-2.604,8.344-7.088,9.745-12.598l3.477-13.67c0.364-1.436,0.563-2.891,0.604-4.34c3.273,2.221,7.173,3.455,11.225,3.455
			h19.531c9.146,0,17.13-6.205,19.384-15.07l24.429-96.093C349.793,18.694,348.466,12.345,344.677,7.472z"/>
	</g>
	<path fill="#3D3D3D" stroke="#000000" stroke-miterlimit="10" d="M344.677,7.472c-3.789-4.873-9.615-7.723-15.788-7.723h-19.531
		c-6.21,0-11.883,2.86-15.591,7.471c-5.99-3.729-13.042-5.714-20.794-5.714c-10.854,0-21.05,3.695-30.43,10.979
		c-0.482-0.857-1.023-1.688-1.638-2.476c-3.788-4.873-9.614-7.723-15.787-7.723h-76.173c-8.765,0-16.444,5.706-19.057,13.981
		c-1.864-1.939-3.996-3.738-6.391-5.362c-9.143-6.194-21.276-9.206-37.1-9.206c-14.532,0-27.201,2.648-37.653,7.873
		c-16.289,8.144-22.097,19.244-24.099,27.121c-0.714,2.807-1.063,5.576-1.059,8.273c-4.938,2.566-8.722,7.15-10.164,12.821
		L9.95,71.461c-1.425,5.601-0.353,11.524,2.9,16.256c-1.426,5.912-0.085,12.158,3.654,16.966c2.054,2.642,4.707,4.689,7.688,6.009
		l-0.056,0.222c-1.521,5.982-0.195,12.332,3.594,17.205c3.789,4.871,9.616,7.723,15.789,7.723h9.818l-1.492,5.867
		c-0.192,0.756-0.339,1.518-0.441,2.279c-0.272,0.717-0.508,1.457-0.7,2.215l-6.168,24.264c-1.74,6.846-1.113,13.553,1.742,19.27
		l-5.121,20.145c-2.12,8.348-0.672,16.455,4.08,22.834c4.948,6.637,12.557,10.293,21.423,10.293h69.336
		c2.565,0,5.034-0.504,7.316-1.402c1.997,0.658,4.104,1.012,6.258,1.012h87.695c9.147,0,17.129-6.207,19.383-15.072l3.478-13.672
		c1.459-5.732,0.3-11.807-3.138-16.594c0.852-1.51,1.516-3.148,1.958-4.891l3.477-13.672c1.37-5.393,0.428-11.084-2.547-15.723
		c4.729-2.604,8.344-7.088,9.745-12.598l3.477-13.67c0.364-1.436,0.563-2.891,0.604-4.34c3.273,2.221,7.173,3.455,11.225,3.455
		h19.531c9.146,0,17.13-6.205,19.384-15.07l24.429-96.093C349.793,18.694,348.466,12.345,344.677,7.472z"/>
</g>
<g id="Layer_1">
	<g>
		<path fill="#FCFCFC" stroke="#000000" stroke-miterlimit="10" d="M253.687,174.659c0.175-4.029-0.88-8.034-3.037-11.479
			c-0.036,0.021-0.07,0.045-0.106,0.065C252.733,166.659,253.81,170.643,253.687,174.659z"/>
		<polygon fill="#FCFCFC" stroke="#000000" stroke-miterlimit="10" points="295.126,116.093 319.554,20 300.023,20 275.595,116.093 
					"/>
		<path fill="#FCFCFC" stroke="#000000" stroke-miterlimit="10" d="M125.058,115.898l68.541,0.195l1.707-13.893l-55.444,0.025
			l1.055-5.234l55.726,0.03l6.481-24.679h-75.195l-2.939,10.951l66.433-0.045l-1.472,4.301l-65.895,0.028l-5.039,19.824
			c-0.652,2.561-0.426,4.618,0.677,6.171C120.794,115.12,122.583,115.898,125.058,115.898z"/>
		<path fill="#FCFCFC" stroke="#000000" stroke-miterlimit="10" d="M212.27,57.107h-34.18l0.596-2.343h28.906l3.476-13.671h-56.641
			l1.241-4.883h56.641l3.477-13.673h-76.173l-6.042,23.768c-0.647,2.551-0.42,4.599,0.686,6.144
			c1.102,1.544,2.893,2.316,5.368,2.316h19.53l-0.596,2.343h-33.008l-3.476,13.672h86.719L212.27,57.107z"/>
		<path fill="#FCFCFC" stroke="#000000" stroke-miterlimit="10" d="M3.477,87.906c-0.34,1.475-0.51,2.968-0.513,4.455
			c0.021-1.467,0.203-2.94,0.553-4.393C3.503,87.948,3.49,87.926,3.477,87.906z"/>
		<path fill="#FCFCFC" stroke="#000000" stroke-miterlimit="10" d="M36.946,189.988c-0.015-0.03-0.026-0.062-0.041-0.092
			l-5.081,19.984c-0.669,2.636-0.981,5.246-0.947,7.787c-0.011-2.462,0.3-4.986,0.947-7.535L36.946,189.988z"/>
		<path fill="#FCFCFC" stroke="#000000" stroke-miterlimit="10" d="M4.09,58.038c1.442-5.671,5.227-10.255,10.164-12.821
			c-0.004-2.697,0.345-5.466,1.059-8.273c2.002-7.877,7.81-18.977,24.099-27.121C49.864,4.598,62.532,1.95,77.065,1.95
			c15.823,0,27.957,3.012,37.1,9.206c2.395,1.624,4.526,3.423,6.391,5.362c2.612-8.275,10.292-13.981,19.057-13.981h76.173
			c6.173,0,11.999,2.85,15.787,7.723c0.614,0.788,1.155,1.619,1.638,2.476c9.38-7.284,19.576-10.979,30.43-10.979
			c7.752,0,14.804,1.985,20.794,5.714C288.141,2.86,293.814,0,300.024,0h19.531c6.173,0,11.999,2.85,15.788,7.723
			c2.797,3.597,4.248,7.999,4.206,12.464c0.1-4.551-1.356-9.05-4.206-12.715c-3.789-4.873-9.615-7.723-15.788-7.723h-19.531
			c-6.21,0-11.883,2.86-15.591,7.471c-5.99-3.729-13.042-5.714-20.794-5.714c-10.854,0-21.05,3.695-30.43,10.979
			c-0.482-0.857-1.023-1.688-1.638-2.476c-3.788-4.873-9.614-7.723-15.787-7.723h-76.173c-8.765,0-16.444,5.706-19.057,13.981
			c-1.864-1.939-3.996-3.738-6.391-5.362C105.022,4.711,92.888,1.7,77.065,1.7c-14.532,0-27.201,2.648-37.653,7.873
			c-16.289,8.144-22.097,19.244-24.099,27.121c-0.714,2.807-1.063,5.576-1.059,8.273c-4.938,2.566-8.722,7.15-10.164,12.821
			L0.616,71.461c-0.448,1.763-0.648,3.558-0.612,5.337c-0.013-1.697,0.185-3.406,0.612-5.086L4.09,58.038z"/>
		<path fill="#FCFCFC" stroke="#000000" stroke-miterlimit="10" d="M41.304,55.449c5.828,3.452,14.472,5.176,25.931,5.176
			c11.588,0,21.142-1.724,28.659-5.176c7.518-3.448,11.988-7.974,13.412-13.574c1.422-5.597-0.697-10.318-6.361-14.16
			c-5.665-3.839-14.291-5.762-25.879-5.762c-11.459,0-21.029,1.923-28.711,5.762c-7.684,3.842-12.235,8.563-13.658,14.16
			C33.273,47.475,35.474,52,41.304,55.449z M54.376,41.289c0.497-1.954,2.611-3.741,6.346-5.371
			c3.734-1.627,8.205-2.441,13.414-2.441c5.206,0,9.256,0.848,12.147,2.538c2.89,1.694,4.103,3.452,3.64,5.274
			c-0.464,1.824-2.57,3.582-6.321,5.273c-3.75,1.694-8.23,2.539-13.438,2.539c-5.209,0-9.258-0.846-12.147-2.539
			C55.127,44.871,53.913,43.113,54.376,41.289z"/>
		<path fill="#FCFCFC" stroke="#000000" stroke-miterlimit="10" d="M14.86,110.943c-0.019-0.008-0.037-0.019-0.056-0.027
			c-0.397,1.566-0.596,3.156-0.61,4.739c0.033-1.5,0.234-3.007,0.611-4.49L14.86,110.943z"/>
		<path fill="#FCFCFC" stroke="#000000" stroke-miterlimit="10" d="M41.371,146.455c0.192-0.758,0.428-1.498,0.7-2.215
			c0.103-0.763,0.249-1.523,0.441-2.279l1.492-5.867h-0.064l-1.428,5.615c-0.192,0.756-0.339,1.518-0.441,2.279
			c-0.272,0.717-0.508,1.457-0.7,2.215l-6.168,24.264c-0.663,2.608-0.978,5.195-0.961,7.716c0.005-2.441,0.32-4.942,0.961-7.464
			L41.371,146.455z"/>
		<path fill="#FCFCFC" stroke="#000000" stroke-miterlimit="10" d="M251.404,208.689c-0.052-4.019-1.313-7.966-3.674-11.301
			c-0.026,0.047-0.048,0.096-0.074,0.143C250.017,200.819,251.303,204.714,251.404,208.689z"/>
		<polygon fill="#FCFCFC" stroke="#000000" stroke-miterlimit="10" points="140.24,222.867 227.936,222.867 231.41,209.195 
			143.715,209.195 		"/>
		<path fill="#FCFCFC" stroke="#000000" stroke-miterlimit="10" d="M77.642,187.906H58.111l-6.9,27.148
			c-0.628,2.473-0.385,4.459,0.73,5.957c1.116,1.496,2.912,2.246,5.388,2.246h69.336l3.475-13.672H72.131L77.642,187.906z"/>
		<path fill="#FCFCFC" stroke="#000000" stroke-miterlimit="10" d="M128.669,130.093l-6.059,23.828h-2.93l6.058-23.828h-19.53
			l-10.229,40.234H75.471l1.341-5.272h17.577l8.093-31.837H65.373l-3.476,13.673h17.58l-1.143,4.491H60.757l-6.168,24.267
			c-0.642,2.519-0.426,4.541,0.647,6.065c1.074,1.525,2.818,2.285,5.235,2.285h32.031l-3.326,13.086h19.531l7.497-29.492h2.93
			l-7.349,28.906h19.53l16.884-66.406H128.669z"/>
		<path fill="#FCFCFC" stroke="#000000" stroke-miterlimit="10" d="M266.447,94.069c7.775-8.301,13.152-18.311,16.131-30.026
			c2.977-11.712,2.681-21.685-0.89-29.925c-3.569-8.24-9.587-12.36-18.05-12.36c-8.464,0-16.544,4.12-24.235,12.36
			c-7.693,8.239-13.027,18.213-16.006,29.925c-2.978,11.715-2.724,21.725,0.766,30.026c3.486,8.304,9.463,12.454,17.928,12.454
			C250.552,106.523,258.673,102.373,266.447,94.069z M254.658,85.895c-3.069,4.639-6.099,6.955-9.093,6.955
			c-2.864,0-4.653-2.316-5.36-6.955c-0.71-4.635,0.198-11.919,2.725-21.856c2.525-9.934,5.312-17.185,8.362-21.756
			c3.048-4.568,6.007-6.854,8.872-6.854c2.994,0,4.854,2.286,5.581,6.854c0.724,4.571-0.174,11.822-2.698,21.756
			C260.52,73.976,257.722,81.259,254.658,85.895z"/>
		<polygon fill="#FCFCFC" stroke="#000000" stroke-miterlimit="10" points="91.024,116.093 100.459,78.984 66.084,78.984 
			62.607,92.656 68.715,92.655 77.451,92.655 71.493,116.093 		"/>
		<polygon fill="#FCFCFC" stroke="#000000" stroke-miterlimit="10" points="63.155,78.983 26.436,78.983 22.959,92.655 
			40.146,92.655 34.188,116.093 40.153,116.092 53.72,116.092 		"/>
		<polygon fill="#FCFCFC" stroke="#000000" stroke-miterlimit="10" points="111.756,62.968 23.475,62.968 20,76.639 108.281,76.639 
					"/>
		<path fill="#FCFCFC" stroke="#000000" stroke-miterlimit="10" d="M155.559,179.507c-0.629,2.477-0.386,4.463,0.732,5.957
			c1.114,1.498,2.911,2.246,5.386,2.246h68.555l3.477-13.672h-57.228l7.199-28.32h57.226l3.478-13.672h-76.758L155.559,179.507z"/>
		<path fill="#A5A4A4" stroke="#000000" stroke-miterlimit="10" d="M265.745,42.283c-0.728-4.568-2.587-6.854-5.581-6.854
			c-2.865,0-5.824,2.286-8.872,6.854c-3.051,4.571-5.837,11.822-8.362,21.756c-2.526,9.937-3.435,17.221-2.725,21.856
			c0.707,4.639,2.496,6.955,5.36,6.955c2.994,0,6.023-2.316,9.093-6.955c3.063-4.636,5.861-11.919,8.389-21.856
			C265.572,54.105,266.469,46.854,265.745,42.283z"/>
		<path fill="#A5A4A4" stroke="#000000" stroke-miterlimit="10" d="M14.86,110.692c-2.981-1.32-5.635-3.367-7.688-6.009
			c-2.768-3.559-4.217-7.907-4.208-12.323c-0.067,4.502,1.387,8.947,4.208,12.573c2.041,2.625,4.674,4.661,7.632,5.982
			c0,0,0-0.001,0-0.001L14.86,110.692z"/>
		<path fill="#A5A4A4" stroke="#000000" stroke-miterlimit="10" d="M338.938,24.679l-24.429,96.093
			c-2.254,8.865-10.237,15.07-19.384,15.07h-19.531c-4.052,0-7.951-1.234-11.225-3.455c-0.042,1.449-0.24,2.904-0.604,4.34
			l-3.477,13.67c-1.401,5.51-5.016,9.994-9.745,12.598c0.039,0.061,0.068,0.125,0.106,0.187c4.676-2.613,8.248-7.065,9.639-12.532
			l3.477-13.671c0.364-1.435,0.563-2.89,0.604-4.34c3.273,2.222,7.173,3.456,11.225,3.456h19.531c9.146,0,17.13-6.206,19.384-15.071
			l24.429-96.093c0.398-1.567,0.597-3.158,0.611-4.742C339.516,21.688,339.315,23.195,338.938,24.679z"/>
		<path fill="#A5A4A4" stroke="#000000" stroke-miterlimit="10" d="M34.187,135.841c-6.173,0-12-2.852-15.789-7.723
			c-2.797-3.598-4.247-7.999-4.205-12.463c-0.1,4.551,1.355,9.051,4.205,12.715c3.789,4.871,9.616,7.723,15.789,7.723h9.754
			l0.064-0.252H34.187z"/>
		<path fill="#A5A4A4" stroke="#000000" stroke-miterlimit="10" d="M34.242,178.182c-0.01,4.151,0.889,8.126,2.663,11.714
			l0.041-0.16C35.178,186.197,34.269,182.278,34.242,178.182z"/>
		<path fill="#A5A4A4" stroke="#000000" stroke-miterlimit="10" d="M249.614,192.388c-0.442,1.742-1.106,3.381-1.958,4.891
			c0.025,0.036,0.049,0.073,0.074,0.109c0.814-1.471,1.455-3.06,1.884-4.748l3.477-13.672c0.362-1.424,0.552-2.869,0.597-4.31
			c-0.06,1.356-0.256,2.717-0.597,4.058L249.614,192.388z"/>
		<path fill="#A5A4A4" stroke="#000000" stroke-miterlimit="10" d="M247.316,227.544c-2.254,8.865-10.235,15.072-19.383,15.072
			h-87.695c-2.153,0-4.261-0.354-6.258-1.012c-2.282,0.898-4.751,1.402-7.316,1.402H57.327c-8.866,0-16.475-3.656-21.423-10.293
			c-3.252-4.365-4.955-9.54-5.027-15.047c0.023,5.601,1.726,10.867,5.027,15.299c4.948,6.637,12.557,10.293,21.423,10.293h69.336
			c2.565,0,5.034-0.504,7.316-1.403c1.997,0.658,4.104,1.013,6.258,1.013h87.695c9.147,0,17.129-6.207,19.383-15.072l3.478-13.672
			c0.457-1.795,0.656-3.624,0.61-5.436c0.022,1.729-0.175,3.472-0.61,5.184L247.316,227.544z"/>
		<path fill="#A5A4A4" stroke="#000000" stroke-miterlimit="10" d="M0.004,76.798c0.031,3.937,1.223,7.809,3.473,11.108
			c0.015-0.063,0.025-0.126,0.04-0.189C1.288,84.475,0.084,80.673,0.004,76.798z"/>
		<path fill="#A5A4A4" stroke="#000000" stroke-miterlimit="10" d="M260.288,150.396l3.477-13.67
			c0.364-1.436,0.563-2.891,0.604-4.34c3.273,2.221,7.173,3.455,11.225,3.455h19.531c9.146,0,17.13-6.205,19.384-15.07
			l24.429-96.093c0.377-1.484,0.578-2.991,0.611-4.491c0.042-4.465-1.409-8.867-4.206-12.464C331.554,2.85,325.728,0,319.555,0
			h-19.531c-6.21,0-11.883,2.86-15.591,7.471c-5.99-3.729-13.042-5.714-20.794-5.714c-10.854,0-21.05,3.695-30.43,10.979
			c-0.482-0.857-1.023-1.688-1.638-2.476c-3.788-4.873-9.614-7.723-15.787-7.723h-76.173c-8.765,0-16.444,5.706-19.057,13.981
			c-1.864-1.939-3.996-3.738-6.391-5.362c-9.143-6.194-21.276-9.206-37.1-9.206c-14.532,0-27.201,2.648-37.653,7.873
			c-16.289,8.144-22.097,19.244-24.099,27.121c-0.714,2.807-1.063,5.576-1.059,8.273c-4.938,2.566-8.722,7.15-10.164,12.821
			L0.616,71.712c-0.427,1.68-0.625,3.389-0.612,5.086c0.08,3.875,1.284,7.676,3.513,10.919c-0.015,0.063-0.025,0.126-0.04,0.189
			c0.014,0.02,0.026,0.042,0.04,0.062c-0.351,1.453-0.532,2.926-0.553,4.393c-0.01,4.416,1.439,8.764,4.208,12.323
			c2.054,2.642,4.707,4.689,7.688,6.009l-0.056,0.222c0,0,0,0.001,0,0.001c0.019,0.008,0.037,0.019,0.056,0.027l-0.056,0.222
			c-0.377,1.483-0.578,2.99-0.611,4.49c-0.042,4.464,1.408,8.866,4.205,12.463c3.789,4.871,9.616,7.723,15.789,7.723h9.818
			l-0.064,0.252h0.064l-1.492,5.867c-0.192,0.756-0.339,1.517-0.441,2.279c-0.272,0.717-0.508,1.457-0.7,2.215l-6.168,24.264
			c-0.641,2.521-0.956,5.022-0.961,7.464c0.027,4.096,0.936,8.015,2.703,11.554l-0.041,0.16c0.015,0.03,0.025,0.062,0.041,0.092
			l-5.121,20.145c-0.647,2.549-0.958,5.073-0.947,7.535c0.073,5.507,1.775,10.682,5.027,15.047
			c4.948,6.637,12.557,10.293,21.423,10.293h69.336c2.565,0,5.034-0.504,7.316-1.402c1.997,0.658,4.104,1.012,6.258,1.012h87.695
			c9.147,0,17.129-6.207,19.383-15.072l3.478-13.672c0.436-1.712,0.633-3.454,0.61-5.184c-0.101-3.975-1.387-7.87-3.748-11.158
			c0.026-0.047,0.048-0.096,0.074-0.143c-0.025-0.036-0.049-0.073-0.074-0.109c0.852-1.51,1.516-3.148,1.958-4.891l3.477-13.672
			c0.341-1.341,0.537-2.701,0.597-4.058c0.123-4.016-0.954-8-3.144-11.413c0.036-0.021,0.07-0.045,0.106-0.065
			c-0.038-0.062-0.067-0.126-0.106-0.187C255.273,160.39,258.887,155.906,260.288,150.396z M300.023,20h19.531l-24.428,96.093
			h-19.531L300.023,20z M125.551,57.108h33.008l0.596-2.343h-19.53c-2.476,0-4.267-0.772-5.368-2.316
			c-1.105-1.545-1.333-3.593-0.686-6.144l6.042-23.768h76.173l-3.477,13.673h-56.641l-1.241,4.883h56.641l-3.476,13.671h-28.906
			l-0.596,2.343h34.18l-3.476,13.673h-86.719L125.551,57.108z M119.016,107.401l5.039-19.824l65.895-0.028l1.472-4.301
			l-66.433,0.045l2.939-10.951h75.195l-6.481,24.679l-55.726-0.03l-1.055,5.234l55.444-0.025l-1.707,13.893l-68.541-0.195
			c-2.475,0-4.264-0.778-5.365-2.326C118.59,112.019,118.364,109.962,119.016,107.401z M34.697,41.875
			c1.423-5.597,5.975-10.318,13.658-14.16c7.682-3.839,17.252-5.762,28.711-5.762c11.588,0,20.214,1.923,25.879,5.762
			c5.664,3.842,7.783,8.563,6.361,14.16c-1.424,5.6-5.895,10.126-13.412,13.574c-7.518,3.452-17.071,5.176-28.659,5.176
			c-11.459,0-20.103-1.724-25.931-5.176C35.474,52,33.273,47.475,34.697,41.875z M23.475,62.968h88.281l-3.476,13.671H20
			L23.475,62.968z M68.715,92.655l-6.108,0.001l3.478-13.672h34.375l-9.436,37.109h-19.53l5.958-23.438H68.715z M40.153,116.092
			l-5.965,0.001l5.958-23.438H22.959l3.477-13.672h36.719l-9.435,37.109H40.153z M126.664,223.257H57.328
			c-2.476,0-4.271-0.75-5.388-2.246c-1.115-1.498-1.358-3.484-0.73-5.957l6.9-27.148h19.531l-5.511,21.68h58.008L126.664,223.257z
			 M131.317,196.5h-19.53l7.349-28.906h-2.93l-7.497,29.492H89.177L92.503,184H60.472c-2.417,0-4.161-0.76-5.235-2.285
			c-1.073-1.524-1.289-3.547-0.647-6.065l6.168-24.267h17.578l1.143-4.491h-17.58l3.476-13.673h37.108l-8.093,31.837H76.812
			l-1.341,5.272h20.508l10.229-40.234h19.53l-6.058,23.828h2.93l6.059-23.828H148.2L131.317,196.5z M227.936,222.867H140.24
			l3.476-13.672h87.695L227.936,222.867z M240.906,145.718H183.68l-7.199,28.32h57.228l-3.477,13.672h-68.555
			c-2.475,0-4.271-0.748-5.386-2.246c-1.118-1.494-1.361-3.48-0.732-5.957l12.066-47.461h76.758L240.906,145.718z M242.09,106.523
			c-8.465,0-14.441-4.15-17.928-12.454c-3.489-8.301-3.743-18.311-0.766-30.026c2.979-11.712,8.313-21.686,16.006-29.925
			c7.691-8.24,15.771-12.36,24.235-12.36c8.463,0,14.48,4.12,18.05,12.36c3.57,8.24,3.866,18.213,0.89,29.925
			c-2.979,11.715-8.355,21.725-16.131,30.026C258.673,102.373,250.552,106.523,242.09,106.523z"/>
		<path fill="#A5A4A4" stroke="#000000" stroke-miterlimit="10" d="M58.017,46.562c2.89,1.693,6.938,2.539,12.147,2.539
			c5.207,0,9.688-0.845,13.438-2.539c3.751-1.691,5.857-3.449,6.321-5.273c0.463-1.822-0.75-3.58-3.64-5.274
			c-2.892-1.69-6.941-2.538-12.147-2.538c-5.209,0-9.68,0.814-13.414,2.441c-3.734,1.63-5.849,3.417-6.346,5.371
			C53.913,43.113,55.127,44.871,58.017,46.562z"/>
	</g>
</g>
</svg>
